<svg width="32" height="32" viewBox="0 0 32 32" fill="none" xmlns="http://www.w3.org/2000/svg">
<path d="M27.325 4.65209C25.8515 3.17109 24.0966 1.997 22.1626 1.19829C20.2285 0.399593 18.1541 -0.00772162 16.0603 0.00011085C7.28679 0.00011085 0.136615 7.11609 0.128579 15.8521C0.128579 18.65 0.863887 21.372 2.25213 23.782L0 32L8.44601 29.796C10.7815 31.0645 13.3998 31.7281 16.0603 31.726H16.0683C24.8438 31.726 31.992 24.61 32 15.8661C32.0018 13.7822 31.5895 11.7185 30.7868 9.79396C29.9841 7.86938 28.8089 6.12188 27.325 4.65209ZM16.0603 29.042C13.6879 29.0402 11.3596 28.4047 9.31793 27.202L8.83576 26.914L3.82521 28.222L5.16323 23.356L4.84982 22.854C3.52347 20.7547 2.82199 18.3241 2.82672 15.8441C2.82672 8.59208 8.76745 2.6761 16.0683 2.6761C17.8076 2.673 19.5303 3.01265 21.1372 3.67548C22.744 4.33831 24.2031 5.31121 25.4304 6.53809C26.6618 7.76038 27.638 9.21317 28.3027 10.8127C28.9675 12.4123 29.3078 14.127 29.3039 15.8581C29.2958 23.136 23.3551 29.042 16.0603 29.042ZM23.323 19.174C22.9272 18.976 20.9724 18.018 20.6047 17.882C20.2391 17.752 19.9719 17.684 19.7107 18.08C19.4435 18.474 18.6801 19.372 18.451 19.63C18.222 19.896 17.9849 19.926 17.5871 19.73C17.1914 19.53 15.9076 19.114 14.3887 17.76C13.2034 16.7101 12.4098 15.4101 12.1728 15.0161C11.9437 14.6201 12.1507 14.4081 12.3496 14.2101C12.5244 14.0341 12.7454 13.7461 12.9442 13.5181C13.1452 13.2901 13.2114 13.1221 13.342 12.8581C13.4726 12.5901 13.4103 12.3621 13.3119 12.1641C13.2114 11.9661 12.4179 10.0121 12.0824 9.22408C11.7609 8.44608 11.4334 8.55408 11.1883 8.54408C10.9593 8.53008 10.6921 8.53008 10.4249 8.53008C10.2232 8.53519 10.0246 8.58171 9.84175 8.66671C9.65888 8.75171 9.4956 8.87337 9.36213 9.02408C8.99648 9.42008 7.97388 10.3781 7.97388 12.3321C7.97388 14.2861 9.4003 16.1641 9.6012 16.4301C9.79809 16.6961 12.4018 20.694 16.3978 22.414C17.342 22.824 18.0854 23.066 18.666 23.25C19.6203 23.554 20.4822 23.508 21.1693 23.41C21.9327 23.294 23.5218 22.45 23.8574 21.524C24.1868 20.596 24.1868 19.804 24.0864 19.638C23.9879 19.47 23.7207 19.372 23.323 19.174Z" fill="white"/>
</svg>
